PathFileType	4	(X/Y/Z)	Run_400 01
DataRate	CameraRate	NumFrames	NumMarkers	Units	OrigDataRate	OrigDataStartFrame	OrigNumFrames
120	120	5	42	mm	120	193	128
Frame#	Time	LASI			RASI			LPSI			RTH1			RTH2			RTH3			LTH1			LTH2			LTH3			RTB1			RTB2			RTB3			LTB1			LTB2			LTB3			RCAL			RTOE			RMT5			LCAL			LTOE			LMT5			LACR			RACR			CLAV			C7			RUA1			RUA2			RUA3			RLEL			RMEL			LUA1			LUA2			LUA3			LLEL			LMEL			RFAsuperior			RFAradius			LFAsuperior			LFAradius			LFAulna			RFAulna			RPSI			
		X1	Y1	Z1	X2	Y2	Z2	X3	Y3	Z3	X4	Y4	Z4	X5	Y5	Z5	X6	Y6	Z6	X7	Y7	Z7	X8	Y8	Z8	X9	Y9	Z9	X10	Y10	Z10	X11	Y11	Z11	X12	Y12	Z12	X13	Y13	Z13	X14	Y14	Z14	X15	Y15	Z15	X16	Y16	Z16	X17	Y17	Z17	X18	Y18	Z18	X19	Y19	Z19	X20	Y20	Z20	X21	Y21	Z21	X22	Y22	Z22	X23	Y23	Z23	X24	Y24	Z24	X25	Y25	Z25	X26	Y26	Z26	X27	Y27	Z27	X28	Y28	Z28	X29	Y29	Z29	X30	Y30	Z30	X31	Y31	Z31	X32	Y32	Z32	X33	Y33	Z33	X34	Y34	Z34	X35	Y35	Z35	X36	Y36	Z36	X37	Y37	Z37	X38	Y38	Z38	X39	Y39	Z39	X40	Y40	Z40	X41	Y41	Z41	X42	Y42	Z42	

184	2.166667	1125.949099	974.540108	-459.603181	1112.813823	974.248	-217.221227	956.712128	1018.097571	-406.254473	1031.990659	818.673999	-178.580084	1086.759612	668.3079269999999	-211.822564	1013.674061	580.3983940000001	-234.29638	1119.364048	825.49796	-525.325238	1250.241371	799.591853	-507.514255	1270.272937	668.150682	-514.421459	986.428701	351.412199	-307.950524	911.565086	328.55742	-251.896358	863.349338	217.924947	-318.188064	1254.980214	497.759047	-449.105233	1144.648696	509.769436	-492.637529	1060.561163	453.30005	-428.876701	674.124338	152.755766	-337.368236	869.164763	77.608458	-365.320537	842.807149	44.0768	-260.319799	895.858694	520.0894050000001	-412.783028	958.6444289999999	323.545323	-389.439346	927.90735	325.014326	-493.213968	1073.226391	1462.260613	-523.266898	1126.867988	1444.037597	-159.044525	1173.250571	1405.449363	-331.819401	1057.1445	1491.219169	-344.912637	1107.669523	1355.114572	-114.04703	1115.192132	1267.186601	-129.2299	1028.037846	1265.719626	-98.777485	1010.376353	1152.126357	-76.21858400000001	984.887412	1147.538149	-140.926451	1011.591739	1414.349962	-566.188042	944.3603890000001	1384.863295	-521.793691	955.499981	1327.45437	-585.125707	840.223622	1277.252725	-597.470851	828.7514159999999	1273.150142	-525.436471	1107.893561	1134.940402	-88.29861	1255.529395	1073.851261	-164.017666	898.772961	1216.086267	-612.144811	1015.010008	1059.509503	-567.877114	955.8297659999999	1035.324117	-592.4888110000001	1227.189578	1011.970045	-151.644709	951.832994	1019.956097	-307.390836	
185	2.175	1127.336059	982.719999	-459.134313	1115.268206	978.765121	-217.911099	957.789911	1025.478755	-404.420844	1029.569906	824.50729	-178.616443	1076.85237	672.574626	-212.754225	998.865018	588.387826	-232.846473	1122.937245	836.880812	-526.671551	1253.132876	814.75689	-507.074167	1277.757349	684.535177	-515.760184	963.2205729999999	358.693175	-306.15792	888.476643	337.241457	-249.082698	839.378653	226.503903	-315.099238	1272.670543	505.744664	-449.251021	1161.293202	507.732016	-493.068239	1082.177121	443.385987	-429.858533	650.2565080000001	166.678558	-334.16508	838.182633	77.77295100000001	-364.720411	809.945297	44.418821	-259.869494	912.9238790000001	494.577882	-413.337532	994.164815	304.404787	-390.262935	962.5451839999999	302.789664	-493.262756	1069.706541	1470.39827	-522.857653	1130.13435	1452.083011	-160.953618	1173.427608	1413.169533	-334.5065	1056.863676	1497.894021	-345.259381	1111.789199	1363.486802	-115.254955	1119.432922	1275.638555	-130.304741	1032.777612	1274.005116	-98.30055299999999	1016.100647	1160.388592	-74.97087000000001	988.821197	1155.18597	-139.346429	1006.900034	1424.844704	-564.611911	940.424783	1396.012686	-519.443099	949.533205	1338.816135	-583.546533	833.172853	1290.186907	-593.296599	823.32226	1285.958783	-520.872781	1114.131861	1147.279455	-88.560022	1262.764009	1094.761529	-168.605239	891.716741	1229.565873	-609.523852	1009.745786	1073.820945	-568.720474	950.181794	1048.995688	-591.302089	1238.249328	1031.403398	-156.322707	954.398095	1026.45817	-305.232259	
186	2.183333	1128.85406	991.456401	-458.924699	1118.438564	983.411784	-219.46378	959.108018	1033.211322	-402.334977	1028.611819	830.714056	-178.557147	1067.801956	677.620397	-213.678602	985.44273	597.639055	-230.666542	1126.446857	848.953468	-527.8625050000001	1255.334447	829.024185	-506.62768	1283.154125	699.455775	-516.5350989999999	941.358637	367.241737	-303.892466	866.675659	346.991195	-245.88377	817.423884	235.768995	-311.550639	1289.118999	513.063149	-448.884708	1177.845979	504.611508	-493.504422	1104.811363	433.081341	-430.56163	628.988429	181.768091	-330.996276	807.903425	77.912283	-364.188876	777.522035	45.291577	-259.529511	932.259708	468.316774	-414.087573	1030.950939	285.967586	-390.730549	998.835874	281.042415	-492.915397	1066.76029	1478.596141	-522.461312	1133.170045	1460.428795	-162.984509	1173.545104	1421.145774	-336.994413	1056.78316	1504.845985	-345.630837	1115.412808	1372.29753	-116.441109	1122.975808	1284.339725	-131.620634	1036.855172	1282.827413	-98.084727	1021.037973	1169.288549	-73.761836	992.3704770000001	1163.514815	-137.994412	1003.045754	1435.253812	-563.159735	937.308593	1407.421677	-517.181612	944.4204089999999	1350.101472	-581.899634	827.084548	1303.019841	-589.279918	818.653316	1299.093876	-516.3555270000001	1119.315593	1160.121148	-88.996296	1268.184123	1114.886176	-172.848677	885.245636	1242.807907	-606.9106430000001	1005.351084	1088.175003	-568.955194	945.526026	1062.640013	-589.665092	1247.045643	1050.429006	-161.501638	957.363643	1033.132682	-302.955686	
187	2.191667	1130.296404	1000.372101	-459.02826	1121.966619	987.956339	-221.700908	960.665255	1041.125381	-400.08426	1028.760609	836.886932	-178.294265	1059.51752	683.102382	-214.606339	973.290147	607.460254	-228.209337	1129.895171	861.449285	-528.784591	1256.918012	842.203006	-506.358443	1286.565024	712.392881	-516.768464	921.0174469999999	376.820908	-301.11366	846.184112	357.65534	-242.396022	797.428617	245.518178	-307.602866	1304.369842	519.678814	-448.402229	1194.436069	500.533357	-494.05111	1128.524907	422.500428	-431.09237	610.378469	197.850981	-327.721238	778.547175	78.683308	-363.422293	745.9467560000001	47.264319	-259.010387	953.911468	441.656834	-414.849524	1068.749509	268.581206	-390.76495	1036.515802	259.965909	-492.166188	1064.367343	1486.589858	-522.15561	1135.940337	1468.889425	-165.151026	1173.610347	1429.168377	-339.269949	1056.917206	1511.841941	-346.030189	1118.670445	1381.383098	-117.592712	1125.951015	1293.131322	-132.917523	1040.26025	1292.091912	-98.006778	1025.239928	1178.59514	-72.623982	995.59446	1172.390444	-136.840743	999.911379	1445.406507	-561.902837	934.96889	1418.800149	-514.98976	939.9800320000001	1361.16461	-580.250866	821.73411	1315.555532	-585.427139	814.729977	1312.24568	-511.90486	1123.521217	1173.065258	-89.64765	1272.113351	1133.812293	-176.753107	879.171555	1255.607872	-604.3712379999999	1001.730733	1102.355491	-568.737304	941.794878	1076.046742	-587.750578	1253.8736	1068.575789	-166.810127	960.613022	1039.927119	-300.622385	
188	2.2	1131.523943	1009.07572	-459.393816	1125.525889	992.356817	-224.288137	962.4689090000001	1049.041696	-397.726145	1029.448558	842.804332	-177.702062	1051.908281	688.755688	-215.533982	962.249442	617.3565	-226.114813	1133.217506	873.9816510000001	-529.258281	1257.979039	854.124819	-506.354948	1288.158358	723.079852	-516.454072	902.435753	387.158022	-298.169124	827.265292	369.06395	-238.808053	779.300148	255.649924	-303.547459	1318.481849	525.5211399999999	-448.501845	1210.998489	495.712494	-494.788017	1153.044539	411.841892	-431.702411	594.432764	214.82283	-324.104908	750.3696619999999	80.73311200000001	-362.155458	715.8395379999999	50.947326	-258.088733	977.810591	414.966663	-415.31475	1107.387548	252.503173	-390.431479	1075.250316	239.783383	-491.121916	1062.459565	1494.187457	-521.994602	1138.413146	1477.262231	-167.42884	1173.65456	1436.990255	-341.339002	1057.20002	1518.642701	-346.493181	1121.641367	1390.571298	-118.713225	1128.515362	1301.888233	-133.939228	1043.053792	1301.68477	-97.948353	1028.741541	1188.057719	-71.60693000000001	998.467779	1181.65164	-135.845145	997.334917	1455.201337	-560.8339999999999	933.28013	1429.837056	-512.894119	936.042762	1371.888218	-578.641182	816.9419789999999	1327.637878	-581.731574	811.512893	1325.101787	-507.588693	1126.795373	1185.650025	-90.525042	1274.86078	1151.205002	-180.301666	873.512445	1267.8552	-601.873106	998.796422	1116.187923	-568.242044	938.913604	1089.051748	-585.744135	1259.079007	1085.414993	-171.750183	963.970896	1046.79641	-298.255225	
